<svg width="13" height="13" viewBox="0 0 13 13" fill="none" xmlns="http://www.w3.org/2000/svg">
<path fill-rule="evenodd" clip-rule="evenodd" d="M6.28806 0C2.80343 0 0 2.80342 0 6.28806C0 9.06528 1.80782 11.4233 4.29684 12.2617C4.61124 12.3141 4.71604 12.1307 4.71604 11.9473C4.71604 11.7901 4.71604 11.3971 4.71604 10.8731C2.96063 11.2661 2.59382 10.0347 2.59382 10.0347C2.30562 9.30108 1.88642 9.11768 1.88642 9.11768C1.31001 8.72468 1.93882 8.72468 1.93882 8.72468C2.56762 8.77708 2.90823 9.37968 2.90823 9.37968C3.45843 10.3491 4.37544 10.0609 4.74224 9.90369C4.79464 9.48448 4.95185 9.22248 5.13525 9.06528C3.74663 8.90808 2.27942 8.35787 2.27942 5.94745C2.27942 5.26625 2.51522 4.68984 2.93443 4.27064C2.88203 4.11344 2.64622 3.48463 2.98683 2.59382C2.98683 2.59382 3.51083 2.43662 4.71604 3.24883C5.21385 3.11783 5.76405 3.03923 6.28806 3.03923C6.81206 3.03923 7.36227 3.11783 7.86007 3.24883C9.06528 2.43662 9.58929 2.59382 9.58929 2.59382C9.92989 3.45843 9.72029 4.08724 9.64169 4.27064C10.0347 4.71604 10.2967 5.26625 10.2967 5.94745C10.2967 8.35787 8.82948 8.88188 7.41467 9.03908C7.65047 9.22248 7.83387 9.61549 7.83387 10.1919C7.83387 11.0303 7.83387 11.7115 7.83387 11.9211C7.83387 12.0783 7.93867 12.2879 8.27927 12.2355C10.7683 11.4233 12.5761 9.06528 12.5761 6.28806C12.5761 2.80342 9.77269 0 6.28806 0Z" fill="white"/>
</svg>
