<svg width="14" height="14" viewBox="0 0 14 14" fill="none" xmlns="http://www.w3.org/2000/svg">
<path d="M6.57364 1.18451C8.3288 1.18451 8.53666 1.19108 9.23002 1.2227C9.6469 1.2278 10.0598 1.30435 10.4508 1.44902C10.7344 1.55837 10.9919 1.72589 11.2068 1.94079C11.4217 2.15569 11.5892 2.4132 11.6986 2.69676C11.8432 3.08777 11.9198 3.50069 11.9249 3.91758C11.9562 4.61094 11.9631 4.81879 11.9631 6.57396C11.9631 8.32912 11.9565 8.53697 11.9249 9.23033C11.9198 9.64722 11.8432 10.0601 11.6986 10.4512C11.5892 10.7347 11.4217 10.9922 11.2068 11.2071C10.9919 11.422 10.7344 11.5895 10.4508 11.6989C10.0598 11.8436 9.6469 11.9201 9.23002 11.9252C8.53697 11.9565 8.32912 11.9634 6.57364 11.9634C4.81817 11.9634 4.61031 11.9568 3.91726 11.9252C3.50038 11.9201 3.08746 11.8436 2.69644 11.6989C2.41289 11.5895 2.15537 11.422 1.94048 11.2071C1.72558 10.9922 1.55806 10.7347 1.44871 10.4512C1.30404 10.0601 1.22749 9.64722 1.22238 9.23033C1.19108 8.53697 1.18419 8.32912 1.18419 6.57396C1.18419 4.81879 1.19077 4.61094 1.22238 3.91758C1.22749 3.50069 1.30404 3.08777 1.44871 2.69676C1.55806 2.4132 1.72558 2.15569 1.94048 1.94079C2.15537 1.72589 2.41289 1.55837 2.69644 1.44902C3.08746 1.30435 3.50038 1.2278 3.91726 1.2227C4.61063 1.19139 4.81848 1.18451 6.57364 1.18451ZM6.57364 0C4.78937 0 4.56461 0.00751271 3.86342 0.0394418C3.31783 0.0502939 2.77802 0.153598 2.26697 0.34496C1.82857 0.510135 1.43149 0.76898 1.10343 1.10343C0.768678 1.43161 0.509612 1.82891 0.344334 2.26759C0.152972 2.77865 0.0496679 3.31845 0.0388158 3.86405C0.00751275 4.56461 0 4.78937 0 6.57364C0 8.35792 0.00751271 8.58267 0.0394418 9.28386C0.0502939 9.82946 0.153598 10.3693 0.34496 10.8803C0.510055 11.3189 0.768904 11.7162 1.10343 12.0445C1.43167 12.379 1.82897 12.6379 2.26759 12.803C2.77865 12.9943 3.31845 13.0976 3.86405 13.1085C4.56524 13.1398 4.78905 13.1479 6.57427 13.1479C8.35948 13.1479 8.5833 13.1404 9.28448 13.1085C9.83008 13.0976 10.3699 12.9943 10.8809 12.803C11.3175 12.6337 11.7139 12.3753 12.0449 12.0441C12.3758 11.7129 12.634 11.3163 12.8029 10.8797C12.9943 10.3686 13.0976 9.82883 13.1085 9.28323C13.1398 8.58267 13.1473 8.35792 13.1473 6.57364C13.1473 4.78937 13.1398 4.56461 13.1078 3.86342C13.097 3.31783 12.9937 2.77802 12.8023 2.26697C12.6372 1.82834 12.3784 1.43104 12.0438 1.10281C11.7156 0.768278 11.3183 0.509428 10.8797 0.344334C10.3686 0.152972 9.82883 0.0496679 9.28323 0.0388158C8.58267 0.00751276 8.35791 0 6.57364 0Z" fill="white"/>
<path d="M6.57201 3.20166C5.90436 3.20166 5.2517 3.39964 4.69656 3.77057C4.14143 4.1415 3.70875 4.66872 3.45325 5.28555C3.19775 5.90238 3.1309 6.58113 3.26115 7.23595C3.39141 7.89078 3.71291 8.49227 4.18502 8.96438C4.65712 9.43648 5.25862 9.75799 5.91344 9.88824C6.56827 10.0185 7.24701 9.95164 7.86384 9.69614C8.48068 9.44064 9.00789 9.00797 9.37882 8.45283C9.74975 7.8977 9.94773 7.24504 9.94773 6.57738C9.94773 5.68208 9.59208 4.82346 8.95901 4.19039C8.32594 3.55732 7.46731 3.20166 6.57201 3.20166ZM6.57201 8.76859C6.13863 8.76859 5.71498 8.64008 5.35464 8.39931C4.9943 8.15854 4.71344 7.81631 4.54759 7.41592C4.38175 7.01553 4.33835 6.57495 4.4229 6.1499C4.50745 5.72484 4.71614 5.33441 5.02259 5.02796C5.32904 4.72151 5.71947 4.51282 6.14453 4.42827C6.56958 4.34372 7.01016 4.38712 7.41055 4.55296C7.81095 4.71881 8.15317 4.99966 8.39394 5.36001C8.63471 5.72035 8.76323 6.144 8.76323 6.57738C8.76323 7.15853 8.53237 7.71587 8.12143 8.1268C7.7105 8.53774 7.15316 8.76859 6.57201 8.76859Z" fill="white"/>
<path d="M10.0925 3.85502C10.5282 3.85502 10.8814 3.50184 10.8814 3.06618C10.8814 2.63052 10.5282 2.27734 10.0925 2.27734C9.65689 2.27734 9.30371 2.63052 9.30371 3.06618C9.30371 3.50184 9.65689 3.85502 10.0925 3.85502Z" fill="white"/>
</svg>
