<svg width="11" height="9" viewBox="0 0 11 9" fill="none" xmlns="http://www.w3.org/2000/svg">
<path d="M10.8431 1.01654C10.4365 1.19726 10.0073 1.31021 9.5555 1.37798C10.0073 1.1069 10.3687 0.677695 10.5269 0.158129C10.0977 0.406617 9.62327 0.587336 9.1037 0.700285C8.69709 0.271078 8.10975 0 7.47723 0C6.25738 0 5.26343 0.993952 5.26343 2.2138C5.26343 2.39452 5.28602 2.55265 5.3312 2.71078C3.50142 2.62042 1.85237 1.73942 0.745464 0.384027C0.564746 0.722875 0.451797 1.08431 0.451797 1.49093C0.451797 2.25898 0.835824 2.93668 1.44575 3.34329C1.08431 3.3207 0.745464 3.23035 0.429207 3.07222V3.09481C0.429207 4.17912 1.19726 5.08271 2.2138 5.28602C2.03308 5.3312 1.82978 5.35379 1.62647 5.35379C1.49093 5.35379 1.3328 5.3312 1.19726 5.30861C1.49093 6.18961 2.30416 6.84472 3.27553 6.84472C2.50747 7.43205 1.5587 7.79349 0.519566 7.79349C0.338847 7.79349 0.158129 7.79349 0 7.7709C0.993953 8.40342 2.14603 8.76485 3.41106 8.76485C7.49982 8.76485 9.73622 5.37638 9.73622 2.4397C9.73622 2.34934 9.73622 2.23639 9.73622 2.14603C10.1654 1.85237 10.5495 1.46834 10.8431 1.01654Z" fill="white"/>
</svg>
